# xmcd
#
# Track frame offsets:
#	150
#	1705
#	21442
#	40315
#	60055
#	77730
#	100365
#	102400
#	124350
#	144230
#	160272
#	181320
#	204042
#	223512
#	241430
#	261562
#	284960
#
# Disc length: 3898 seconds
#
# Revision: 6
# Processed by: cddbd v1.5.2PL0 Copyright (c) Steve Scherf et al.
# Submitted via: EasyCDDAExtractor 12.0.1.1
#
DISCID=f00f3811
DTITLE=Color Me Badd - Time&Chance
DYEAR=1993
DGENRE=R&B
TTITLE0=Intro
TTITLE1=Time And Chance
TTITLE2=Groovy Now
TTITLE3=Let Me Have ItAll
TTITLE4=Rosanna's LittleSister
TTITLE5=How Deep
TTITLE6=La Tremenda
TTITLE7=In The Sunshine
TTITLE8=Choose
TTITLE9=The Bells
TTITLE10=Wild flower
TTITLE11=Living Without Her
TTITLE12=Close To Heaven
TTITLE13=Trust Me
TTITLE14=Let's Start With Forever
TTITLE15=God Is Love
TTITLE16=Let Love Rule
EXTD=
EXTT0=
EXTT1=
EXTT2=
EXTT3=
EXTT4=
EXTT5=
EXTT6=
EXTT7=
EXTT8=
EXTT9=
EXTT10=
EXTT11=
EXTT12=
EXTT13=
EXTT14=
EXTT15=
EXTT16=
PLAYORDER=
